<?xml version="1.0" standalone="no"?>
<!DOCTYPE svg PUBLIC "-//W3C//DTD SVG 20010904//EN"
 "http://www.w3.org/TR/2001/REC-SVG-20010904/DTD/svg10.dtd">
<svg version="1.0" xmlns="http://www.w3.org/2000/svg"
 width="700.000000pt" height="700.000000pt" viewBox="0 0 700.000000 700.000000"
 preserveAspectRatio="xMidYMid meet">
<metadata>
Created by potrace 1.14, written by Peter Selinger 2001-2017
</metadata>
<g transform="translate(0.000000,700.000000) scale(0.100000,-0.100000)"
fill="#000000" stroke="none">
<path d="M3417 6344 c-1 -1 -52 -4 -113 -8 -61 -4 -121 -9 -135 -11 -13 -2
-40 -6 -59 -9 -45 -6 -134 -20 -140 -21 -3 -1 -23 -5 -45 -9 -155 -31 -387
-104 -543 -172 -829 -361 -1432 -1074 -1647 -1949 -21 -82 -19 -73 -45 -240
-91 -591 6 -1186 280 -1720 357 -696 988 -1217 1737 -1436 115 -33 311 -75
396 -85 29 -3 63 -7 77 -10 38 -6 256 -17 340 -17 80 0 262 11 298 18 11 2 47
6 79 10 32 3 65 8 73 10 8 2 28 6 44 9 487 84 983 325 1364 664 103 91 186
176 299 304 46 52 184 239 196 266 6 12 14 22 19 22 4 0 8 4 8 10 0 5 16 35
37 67 154 241 303 630 357 933 3 19 8 44 10 56 2 12 7 45 11 74 4 29 8 61 10
71 22 112 21 550 -1 662 -2 12 -7 44 -10 72 -3 27 -10 72 -15 100 -6 27 -12
61 -15 75 -30 163 -112 411 -197 598 -319 698 -913 1243 -1632 1500 -123 44
-331 101 -420 116 -212 35 -337 47 -508 50 -60 1 -109 1 -110 0z m308 -448
c70 -7 79 -8 165 -21 299 -45 660 -187 925 -363 286 -191 504 -408 693 -689
210 -312 356 -731 389 -1113 13 -159 8 -384 -13 -544 -12 -90 -56 -279 -90
-387 -225 -712 -780 -1292 -1475 -1540 -108 -38 -301 -93 -372 -104 -18 -3
-43 -7 -57 -10 -14 -3 -45 -7 -70 -10 -25 -3 -65 -8 -90 -11 -71 -10 -317 -11
-415 -3 -172 16 -212 22 -375 61 -697 168 -1282 636 -1599 1283 -39 78 -71
149 -71 157 0 8 -4 18 -9 23 -12 14 -78 220 -103 324 -23 97 -23 98 -32 164
-4 27 -9 56 -11 65 -28 152 -23 549 10 712 2 14 7 39 10 57 10 61 64 258 95
348 38 112 35 104 108 255 177 365 444 680 777 914 44 31 85 61 92 66 7 6 15
10 17 10 3 0 36 19 73 42 211 129 574 260 820 293 26 4 59 9 73 11 14 2 61 7
105 10 44 4 81 7 82 8 6 5 287 -2 348 -8z"/>
<path d="M2043 3282 c-64 -4 -64 -4 -29 -142 64 -249 162 -440 327 -635 156
-185 373 -340 611 -434 317 -126 708 -133 1043 -19 252 86 497 255 679 468
109 127 229 346 279 505 31 98 62 243 55 250 -3 3 -101 6 -218 7 -223 0 -229
-1 -230 -44 0 -31 -41 -139 -86 -229 -74 -150 -220 -321 -337 -397 -23 -15
-44 -30 -47 -34 -3 -4 -46 -27 -95 -51 -123 -61 -238 -97 -356 -112 -57 -7
-245 -7 -284 0 -16 3 -43 8 -60 11 -85 16 -211 61 -303 110 -56 29 -108 58
-115 63 -138 111 -197 170 -269 271 -64 91 -149 267 -163 340 -13 66 -16 70
-53 70 -20 0 -95 2 -167 3 -71 1 -154 1 -182 -1z"/>
</g>
</svg>
